<svg xmlns="http://www.w3.org/2000/svg" width="463.1484375" height="310.4190368652344" viewBox="-355.50555419921875 -361.40496826171875 463.1484375 310.4190368652344"><title>Neo4j Graph Visualization</title><desc>Created using Neo4j (http://www.neo4j.com/)</desc><g class="layer relationships"><g class="relationship" transform="translate(-178.6796275116196 -227.01301841488265) rotate(185.04995701444847)"><path class="b-outline" fill="#A5ABB6" stroke="none" d="M 25 0.5 L 43.46270829878027 0.5 L 43.46270829878027 -0.5 L 25 -0.5 Z M 97.93927079878027 0.5 L 116.40197909756054 0.5 L 116.40197909756054 3.5 L 123.40197909756054 0 L 116.40197909756054 -3.5 L 116.40197909756054 -0.5 L 97.93927079878027 -0.5 Z"/><text text-anchor="middle" pointer-events="none" font-size="8px" fill="#000000" x="70.70098954878027" y="3" transform="rotate(180 70.70098954878027 0)" font-family="Helvetica Neue, Helvetica, Arial, sans-serif">hasSubstitute</text></g><g class="relationship" transform="translate(-178.6796275116196 -227.01301841488265) rotate(513.3327594818338)"><path class="b-outline" fill="#A5ABB6" stroke="none" d="M 25 0.5 L 48.19744390107154 0.5 L 48.19744390107154 -0.5 L 25 -0.5 Z M 102.67400640107154 0.5 L 125.87145030214307 0.5 L 125.87145030214307 3.5 L 132.87145030214307 0 L 125.87145030214307 -3.5 L 125.87145030214307 -0.5 L 102.67400640107154 -0.5 Z"/><text text-anchor="middle" pointer-events="none" font-size="8px" fill="#000000" x="75.43572515107154" y="3" transform="rotate(180 75.43572515107154 0)" font-family="Helvetica Neue, Helvetica, Arial, sans-serif">hasSubstitute</text></g><g class="relationship" transform="translate(-178.6796275116196 -227.01301841488265) rotate(483.8222163905921)"><path class="b-outline" fill="#A5ABB6" stroke="none" d="M 25 0.5 L 51.17250101876215 0.5 L 51.17250101876215 -0.5 L 25 -0.5 Z M 105.64906351876215 0.5 L 131.8215645375243 0.5 L 131.8215645375243 3.5 L 138.8215645375243 0 L 131.8215645375243 -3.5 L 131.8215645375243 -0.5 L 105.64906351876215 -0.5 Z"/><text text-anchor="middle" pointer-events="none" font-size="8px" fill="#000000" x="78.41078226876215" y="3" transform="rotate(180 78.41078226876215 0)" font-family="Helvetica Neue, Helvetica, Arial, sans-serif">hasSubstitute</text></g><g class="relationship" transform="translate(-178.6796275116196 -227.01301841488265) rotate(445.67953380532845)"><path class="b-outline" fill="#A5ABB6" stroke="none" d="M 25 0.5 L 42.98475213539743 0.5 L 42.98475213539743 -0.5 L 25 -0.5 Z M 97.46131463539743 0.5 L 115.44606677079486 0.5 L 115.44606677079486 3.5 L 122.44606677079486 0 L 115.44606677079486 -3.5 L 115.44606677079486 -0.5 L 97.46131463539743 -0.5 Z"/><text text-anchor="middle" pointer-events="none" font-size="8px" fill="#000000" x="70.22303338539743" y="3" font-family="Helvetica Neue, Helvetica, Arial, sans-serif">hasSubstitute</text></g><g class="relationship" transform="translate(-178.6796275116196 -227.01301841488265) rotate(225.98305366703573)"><path class="b-outline" fill="#A5ABB6" stroke="none" d="M 25 0.5 L 42.53867613696683 0.5 L 42.53867613696683 -0.5 L 25 -0.5 Z M 97.01523863696683 0.5 L 114.55391477393366 0.5 L 114.55391477393366 3.5 L 121.55391477393366 0 L 114.55391477393366 -3.5 L 114.55391477393366 -0.5 L 97.01523863696683 -0.5 Z"/><text text-anchor="middle" pointer-events="none" font-size="8px" fill="#000000" x="69.77695738696683" y="3" transform="rotate(180 69.77695738696683 0)" font-family="Helvetica Neue, Helvetica, Arial, sans-serif">hasSubstitute</text></g><g class="relationship" transform="translate(-76.10693109980838 -238.0446863689407) rotate(331.75454814089665)"><path class="b-outline" fill="#A5ABB6" stroke="none" d="M 25 0.5 L 43.81895903864573 0.5 L 43.81895903864573 -0.5 L 25 -0.5 Z M 98.29552153864573 0.5 L 117.11448057729146 0.5 L 117.11448057729146 3.5 L 124.11448057729146 0 L 117.11448057729146 -3.5 L 117.11448057729146 -0.5 L 98.29552153864573 -0.5 Z"/><text text-anchor="middle" pointer-events="none" font-size="8px" fill="#000000" x="71.05724028864573" y="3" font-family="Helvetica Neue, Helvetica, Arial, sans-serif">hasSubstitute</text></g><g class="relationship" transform="translate(-76.10693109980838 -238.0446863689407) rotate(442.0135654564981)"><path class="b-outline" fill="#A5ABB6" stroke="none" d="M 25 0.5 L 48.513475494396374 0.5 L 48.513475494396374 -0.5 L 25 -0.5 Z M 102.99003799439637 0.5 L 126.50351348879275 0.5 L 126.50351348879275 3.5 L 133.50351348879275 0 L 126.50351348879275 -3.5 L 126.50351348879275 -0.5 L 102.99003799439637 -0.5 Z"/><text text-anchor="middle" pointer-events="none" font-size="8px" fill="#000000" x="75.75175674439637" y="3" font-family="Helvetica Neue, Helvetica, Arial, sans-serif">hasSubstitute</text></g><g class="relationship" transform="translate(-76.10693109980838 -238.0446863689407) rotate(405.9183149220039)"><path class="b-outline" fill="#A5ABB6" stroke="none" d="M 25 0.5 L 50.323833519823566 0.5 L 50.323833519823566 -0.5 L 25 -0.5 Z M 104.80039601982357 0.5 L 130.12422953964713 0.5 L 130.12422953964713 3.5 L 137.12422953964713 0 L 130.12422953964713 -3.5 L 130.12422953964713 -0.5 L 104.80039601982357 -0.5 Z"/><text text-anchor="middle" pointer-events="none" font-size="8px" fill="#000000" x="77.56211476982357" y="3" font-family="Helvetica Neue, Helvetica, Arial, sans-serif">hasSubstitute</text></g><g class="relationship" transform="translate(-76.10693109980838 -238.0446863689407) rotate(369.5977579184282)"><path class="b-outline" fill="#A5ABB6" stroke="none" d="M 25 0.5 L 47.73504037204634 0.5 L 47.73504037204634 -0.5 L 25 -0.5 Z M 102.21160287204634 0.5 L 124.94664324409268 0.5 L 124.94664324409268 3.5 L 131.94664324409268 0 L 124.94664324409268 -3.5 L 124.94664324409268 -0.5 L 102.21160287204634 -0.5 Z"/><text text-anchor="middle" pointer-events="none" font-size="8px" fill="#000000" x="74.97332162204634" y="3" font-family="Helvetica Neue, Helvetica, Arial, sans-serif">hasSubstitute</text></g></g><g class="layer nodes"><g class="node" aria-label="graph-node9" transform="translate(-178.6796275116196,-227.01301841488265)"><circle class="b-outline" cx="0" cy="0" r="25" fill="#57C7E3" stroke="#23b3d7" stroke-width="2px"/><text class="caption" text-anchor="middle" pointer-events="none" x="0" y="5" font-size="10px" fill="#2A2C34" font-family="Helvetica Neue, Helvetica, Arial, sans-serif"> spinach</text></g><g class="node" aria-label="graph-node0" transform="translate(-326.5055586663157,-240.0759996335723)"><circle class="b-outline" cx="0" cy="0" r="25" fill="#57C7E3" stroke="#23b3d7" stroke-width="2px"/><text class="caption" text-anchor="middle" pointer-events="none" x="0" y="0" font-size="10px" fill="#2A2C34" font-family="Helvetica Neue, Helvetica, Arial, sans-serif"> amaranth</text><text class="caption" text-anchor="middle" pointer-events="none" x="0" y="10" font-size="10px" fill="#2A2C34" font-family="Helvetica Neue, Helvetica, Arial, sans-serif"> greens</text></g><g class="node" aria-label="graph-node1" transform="translate(-319.7579988387949,-156.15902795440348)"><circle class="b-outline" cx="0" cy="0" r="25" fill="#57C7E3" stroke="#23b3d7" stroke-width="2px"/><text class="caption" text-anchor="middle" pointer-events="none" x="0" y="0" font-size="10px" fill="#2A2C34" font-family="Helvetica Neue, Helvetica, Arial, sans-serif"> beet</text><text class="caption" text-anchor="middle" pointer-events="none" x="0" y="10" font-size="10px" fill="#2A2C34" font-family="Helvetica Neue, Helvetica, Arial, sans-serif"> greens</text></g><g class="node" aria-label="graph-node2" transform="translate(-269.8656242611073,-90.91518961396218)"><circle class="b-outline" cx="0" cy="0" r="25" fill="#57C7E3" stroke="#23b3d7" stroke-width="2px"/><text class="caption" text-anchor="middle" pointer-events="none" x="0" y="0" font-size="10px" fill="#2A2C34" font-family="Helvetica Neue, Helvetica, Arial, sans-serif"> turnip</text><text class="caption" text-anchor="middle" pointer-events="none" x="0" y="10" font-size="10px" fill="#2A2C34" font-family="Helvetica Neue, Helvetica, Arial, sans-serif"> greens</text></g><g class="node" aria-label="graph-node3" transform="translate(-167.57179000861203,-79.98595100148263)"><circle class="b-outline" cx="0" cy="0" r="25" fill="#57C7E3" stroke="#23b3d7" stroke-width="2px"/><text class="caption" text-anchor="middle" pointer-events="none" x="0" y="5" font-size="10px" fill="#2A2C34" font-family="Helvetica Neue, Helvetica, Arial, sans-serif"> kale</text></g><g class="node" aria-label="graph-node4" transform="translate(-280.51570729017595,-332.4049668307883)"><circle class="b-outline" cx="0" cy="0" r="25" fill="#57C7E3" stroke="#23b3d7" stroke-width="2px"/><text class="caption" text-anchor="middle" pointer-events="none" x="0" y="5" font-size="10px" fill="#2A2C34" font-family="Helvetica Neue, Helvetica, Arial, sans-serif"> sorrel</text></g><g class="node" aria-label="graph-node10" transform="translate(-76.10693109980838,-238.0446863689407)"><circle class="b-outline" cx="0" cy="0" r="25" fill="#57C7E3" stroke="#23b3d7" stroke-width="2px"/><text class="caption" text-anchor="middle" pointer-events="none" x="0" y="5" font-size="10px" fill="#2A2C34" font-family="Helvetica Neue, Helvetica, Arial, sans-serif"> chicken</text></g><g class="node" aria-label="graph-node5" transform="translate(55.25223590798993,-308.61307561549205)"><circle class="b-outline" cx="0" cy="0" r="25" fill="#57C7E3" stroke="#23b3d7" stroke-width="2px"/><text class="caption" text-anchor="middle" pointer-events="none" x="0" y="5" font-size="10px" fill="#2A2C34" font-family="Helvetica Neue, Helvetica, Arial, sans-serif"> tofu</text></g><g class="node" aria-label="graph-node6" transform="translate(-54.084668606426725,-81.07849974594694)"><circle class="b-outline" cx="0" cy="0" r="25" fill="#57C7E3" stroke="#23b3d7" stroke-width="2px"/><text class="caption" text-anchor="middle" pointer-events="none" x="0" y="5" font-size="10px" fill="#2A2C34" font-family="Helvetica Neue, Helvetica, Arial, sans-serif"> turkey</text></g><g class="node" aria-label="graph-node7" transform="translate(36.680172982060384,-121.58295464280718)"><circle class="b-outline" cx="0" cy="0" r="25" fill="#57C7E3" stroke="#23b3d7" stroke-width="2px"/><text class="caption" text-anchor="middle" pointer-events="none" x="0" y="5" font-size="10px" fill="#2A2C34" font-family="Helvetica Neue, Helvetica, Arial, sans-serif"> potato</text></g><g class="node" aria-label="graph-node8" transform="translate(78.64286127714067,-211.87694697709276)"><circle class="b-outline" cx="0" cy="0" r="25" fill="#57C7E3" stroke="#23b3d7" stroke-width="2px"/><text class="caption" text-anchor="middle" pointer-events="none" x="0" y="5" font-size="10px" fill="#2A2C34" font-family="Helvetica Neue, Helvetica, Arial, sans-serif"> seitan</text></g></g></svg>